/* XPM */
static char *gnome-foot[] = {
/* columns rows colors chars-per-pixel */
"47 48 125 2",
"   c #000000",
".  c #080606",
"X  c #090807",
"o  c #0C0B09",
"O  c #100E0C",
"+  c #12100E",
"@  c #151311",
"#  c #181512",
"$  c #1E1A17",
"%  c #1E1B19",
"&  c #201D1A",
"*  c #25211D",
"=  c #28231F",
"-  c #2A2622",
";  c #2E2925",
":  c #2F2F2F",
">  c #312B26",
",  c #322D28",
"<  c #37302B",
"1  c #3A332D",
"2  c #353332",
"3  c #3D3630",
"4  c #3F3832",
"5  c #423A34",
"6  c #443D38",
"7  c #47413C",
"8  c #4B433B",
"9  c #50463F",
"0  c gray25",
"q  c #4B4743",
"w  c #4D4844",
"e  c #504740",
"r  c #544B43",
"t  c #584E45",
"y  c #584F48",
"u  c #5A5047",
"i  c #5D5249",
"p  c #545453",
"a  c #5B5652",
"s  c #5E5B58",
"d  c #61554C",
"f  c #665B51",
"g  c #695C53",
"h  c #6E6156",
"j  c #6D625A",
"k  c #71645A",
"l  c #76685E",
"z  c #616060",
"x  c #6F6F6E",
"c  c #736B66",
"v  c #7B6D62",
"b  c #7F7064",
"n  c #7C726A",
"m  c #7D7873",
"M  c #7D7B7A",
"N  c #817266",
"B  c #837569",
"V  c #86786E",
"C  c #897A6E",
"Z  c #807E7C",
"A  c #8C7D72",
"S  c #8D8075",
"D  c #8D8278",
"F  c #908175",
"G  c #92847A",
"H  c #95887D",
"J  c #98897E",
"K  c #938A83",
"L  c #948E89",
"P  c #9A8D82",
"I  c #9D9085",
"U  c #9E9289",
"Y  c #939190",
"T  c #989694",
"R  c #9C9996",
"E  c #A09287",
"W  c #A2958B",
"Q  c #A5988E",
"!  c #A69A91",
"~  c #A79F99",
"^  c #A99D93",
"/  c #A6A09B",
"(  c #ACA096",
")  c #ADA299",
"_  c #B1A69D",
"`  c #B3A89F",
"'  c #A6A5A3",
"]  c #A8A4A1",
"[  c #AFAAA5",
"{  c #AFACAA",
"}  c #B4AAA2",
"|  c #B2AFAD",
" . c #B8AEA6",
".. c #B5B2AF",
"X. c #BCB3AC",
"o. c #B3B3B2",
"O. c #BBB8B6",
"+. c #BDBBB9",
"@. c #C3BBB4",
"#. c #C6BEB8",
"$. c #C6C0BB",
"%. c #C9C2BC",
"&. c gray77",
"*. c #CCC6C0",
"=. c #CEC8C4",
"-. c #CDCBCA",
";. c #D2CBC6",
":. c #D3CEC9",
">. c #D6D1CD",
",. c #D8D2CE",
"<. c #D4D2D1",
"1. c #DAD5D2",
"2. c #DDD9D6",
"3. c #DCDAD9",
"4. c #E0DCDA",
"5. c #E5E1DE",
"6. c #E4E2E1",
"7. c #E8E5E3",
"8. c #EAE8E6",
"9. c #ECEBE9",
"0. c #F2F0EF",
"q. c #F3F2F2",
"w. c #F8F7F7",
"e. c #FBFAFA",
"r. c None",
/* pixels */
"r.r.r.r.r.r.r.r.r.r.r.r.r.r.r.r.r.r.r.r.r.r.r.r.r.r.r.r.r.r.r.r.r.r.r.r.r.r.r.r.r.r.r.r.r.r.r.",
"r.r.r.r.r.r.r.r.r.r.r.r.r.r.r.r.r.r.r.r.r.r.r.r.r.r.r.r.r.r.r.r.r.r.r.r.r.r.r.r.r.r.r.r.r.r.r.",
"r.r.r.r.r.r.r.r.r.r.r.r.r.r.r.r.r.r.r.r.r.r.r.r.r.r.r.r.r.r.r.r.r.r.r.r.r.r.r.r.r.r.r.r.r.r.r.",
"r.r.r.r.r.r.r.r.r.r.r.r.r.r.r.r.r.r.r.r.r.Y ..m   r.r.r.r.r.r.r.r.r.r.r.r.r.r.r.r.r.r.r.r.r.r.",
"r.r.r.r.r.r.r.r.r.r.r.r.r.r.r.r.r.r.r.r.o.6.9.) i O r.r.r.r.r.r.r.r.r.r.r.r.r.r.r.r.r.r.r.r.r.",
"r.r.r.r.r.r.r.r.r.r.r.r.r.r.    r.r.r.: <.w.8.! 8 &   r.r.r.r.r.r.r.r.r.r.r.r.r.r.r.r.r.r.r.r.",
"r.r.r.r.r.r.r.r.r.r.r.r.r.O.=.~ r   r.R 6.9.3.L i % .   r.r.r.r.r.r.r.r.r.r.r.r.r.r.r.r.r.r.r.",
"r.r.r.r.r.r.r.r.r.r.r.r.M 8.4.[ j 3   | <.6.*.H 9 O     r.r.r.r.r.r.r.r.r.r.r.r.r.r.r.r.r.r.r.",
"r.r.r.r.r.r.r.r.r.r.r.  ' 3.9.^ d 8 @ ' 2.:.! G u o       r.r.r.r.r.r.r.r.r.r.r.r.r.r.r.r.r.r.",
"r.r.r.r.r.r.r.r.r.r.r.  ! $.@.[ i 5 6 L @._ J B 8 .       r.r.r.r.r.r.r.r.r.r.r.r.r.r.r.r.r.r.",
"r.r.r.r.r.r.r.r.r.r.r.  m ! P V 5 o & 5 A N N g =         r.r.r.r.r.r.r.r.r.r.r.r.r.r.r.r.r.r.",
"r.r.r.r.r.r.r.r.r.r.r.  2 D g 6 o       5 6 6 & .         r.r.r.r.r.r.r.r.r.r.r.r.r.r.r.r.r.r.",
"r.r.r.r.r.r.r.r.r.O.O.q   3 1 o         o ; -             r.r.r.r.r.r.r.r.r.r.r.r.r.r.r.r.r.r.",
"r.r.r.r.r.r.r.r.2 8.0.! ;   X             . - - o       r.r.r.r.r.r.r.r.r.r.r.r.r.r.r.r.r.r.r.",
"r.r.r.r.r.r.r.r.Z 9.6.L 6 .               p z s 6 - O   r.r.r.r.r.r.r.r.r.r.r.r.r.r.r.r.r.r.r.",
"r.r.r.r.r.r.r.r.Z <./ n -             o.&.6.9.3.>.! S k 3   r.r.r.r.r.r.r.r.r.r.r.r.r.r.r.r.r.",
"r.r.r.r.r.r.r.r.2 ! J 7 X       r.M <.9.8.2.3.4..._ Q B 8 +   r.r.r.r.r.r.r.r.r.r.r.r.r.r.r.r.",
"r.r.r.r.r.r.r.r.  j k &     o   Y <.q.4.5.;.@.%.~ ) W k = .   r.r.r.r.r.r.r.r.r.r.r.r.r.r.r.r.",
"r.r.r.r.r.r.r.r.  @ 8 o     o 0 <.9.8.,. .) J H H j A t o     r.r.r.r.r.r.r.r.r.r.r.r.r.r.r.r.",
"r.r.r.r.r.r.r.  x p   .       -.w.5.,.} ! J J W H V w ,         r.r.r.r.r.r.r.r.r.r.r.r.r.r.r.",
"r.r.r.r.r.r.  <.q.3.H -     T 8.0.8.X.J G H W U A J g O         r.r.r.r.r.r.r.r.r.r.r.r.r.r.r.",
"r.r.r.r.r.r.Y 7.8.*.n 4 &   +.7.9.;.^ J E J U W E B 7         r.r.r.r.r.r.r.r.r.r.r.r.r.r.r.r.",
"r.r.r.r.r.r.2 L U Q u & , X =.9.,.) W U J P P J B 8 O         r.r.r.r.r.r.r.r.r.r.r.r.r.r.r.r.",
"r.r.r.r.r.r.  5 t 1 #   & % =.4.=.W G A S W F f 1 X           r.r.r.r.r.r.r.r.r.r.r.r.r.r.r.r.",
"r.r.r.r.r.r.    O X     o & >.,.} ) I v D g 6 O             r.r.r.r.r.r.r.r.r.r.r.r.r.r.r.r.r.",
"r.r.r.r.r.r.r.          . - %.4.X._ ! W l 8 o             r.r.r.r.  r.r.r.r.r.r.r.r.r.r.r.r.r.",
"r.r.r.r.r.r.r.r.r.        2 ..:.#.^ E P l %             r.  / +.O.[ P a   r.r.r.r.r.r.r.r.r.r.",
"r.r.r.r.r.r.r.r.r.r.r.r.r.- } %.=.W P F e .         r.r.{ :.9.5.4.4.} B 6   r.r.r.r.r.r.r.r.r.",
"r.r.r.r.r.r.r.r.r.r.r.r.r.  ! %.#.` J b 5         r.r.Z 3.7.7.4.;.%._ h = .   r.r.r.r.r.r.r.r.",
"r.r.r.r.r.r.r.r.r.r.r.r.r.  K @.X.( P V 1       r.r.r.a X.} #.#._ ^ G 9 X     r.r.r.r.r.r.r.r.",
"r.r.r.r.r.r.r.r.r.r.r.r.r.  c X.#.( E B 6 .     r.r.r.  8 F W E J E j >       r.r.r.r.r.r.r.r.",
"r.r.r.r.r.r.r.r.r.r.r.r.r.  8 _ @. .J V i & X     r.r.    w ^  .Q F h #       r.r.r.r.r.r.r.r.",
"r.r.r.r.r.r.r.r.r.r.r.r.r.r.O D ! ^ P A B t 5 1 O   r.r.    / :.( F i X       r.r.r.r.r.r.r.r.",
"r.r.r.r.r.r.r.r.r.r.r.r.r.r.  y V P W P H V k B F K K ..-.4.w.>.^ A 1         r.r.r.r.r.r.r.r.",
"r.r.r.r.r.r.r.r.r.r.r.r.r.r.  2 v V E J J F A J Q @.%.*.7.e.7.%.^ k @         r.r.r.r.r.r.r.r.",
"r.r.r.r.r.r.r.r.r.r.r.r.r.r.r.  f v P P J F E Q ^ _ @.=.4.,.%._ A 6         r.r.r.r.r.r.r.r.r.",
"r.r.r.r.r.r.r.r.r.r.r.r.r.r.r.  ; g l F P J J G W F Q Q  ._ Q J g +         r.r.r.r.r.r.r.r.r.",
"r.r.r.r.r.r.r.r.r.r.r.r.r.r.r.r.  1 i g v F E W _ J P Q F E W v 1         r.r.r.r.r.r.r.r.r.r.",
"r.r.r.r.r.r.r.r.r.r.r.r.r.r.r.r.  . 1 9 d l C E Q J P E W Q A 9 .         r.r.r.r.r.r.r.r.r.r.",
"r.r.r.r.r.r.r.r.r.r.r.r.r.r.r.r.r.  . = 1 8 d k V C C F F l 9 O         r.r.r.r.r.r.r.r.r.r.r.",
"r.r.r.r.r.r.r.r.r.r.r.r.r.r.r.r.r.r.    @ & & , 6 8 r r 8 ; .           r.r.r.r.r.r.r.r.r.r.r.",
"r.r.r.r.r.r.r.r.r.r.r.r.r.r.r.r.r.r.r.    X X . X X X . .             r.r.r.r.r.r.r.r.r.r.r.r.",
"r.r.r.r.r.r.r.r.r.r.r.r.r.r.r.r.r.r.r.r.                            r.r.r.r.r.r.r.r.r.r.r.r.r.",
"r.r.r.r.r.r.r.r.r.r.r.r.r.r.r.r.r.r.r.r.r.r.                      r.r.r.r.r.r.r.r.r.r.r.r.r.r.",
"r.r.r.r.r.r.r.r.r.r.r.r.r.r.r.r.r.r.r.r.r.r.r.r.r.            r.r.r.r.r.r.r.r.r.r.r.r.r.r.r.r.",
"r.r.r.r.r.r.r.r.r.r.r.r.r.r.r.r.r.r.r.r.r.r.r.r.r.r.r.r.r.r.r.r.r.r.r.r.r.r.r.r.r.r.r.r.r.r.r.",
"r.r.r.r.r.r.r.r.r.r.r.r.r.r.r.r.r.r.r.r.r.r.r.r.r.r.r.r.r.r.r.r.r.r.r.r.r.r.r.r.r.r.r.r.r.r.r.",
"r.r.r.r.r.r.r.r.r.r.r.r.r.r.r.r.r.r.r.r.r.r.r.r.r.r.r.r.r.r.r.r.r.r.r.r.r.r.r.r.r.r.r.r.r.r.r."
};
