/* XPM */
static char * doc_bank_pp_xpm[] = {
"16 16 47 1",
" 	c None",
".	c #777777",
"+	c #FFFFFF",
"@	c #747474",
"#	c #F9F9F9",
"$	c #3A3A3A",
"%	c #FAFAFA",
"&	c #FDFDFD",
"*	c #878787",
"=	c #A6A67F",
"-	c #B4B482",
";	c #737373",
">	c #8F8F8F",
",	c #000000",
"'	c #666666",
")	c #959481",
"!	c #A6A527",
"~	c #E2E036",
"{	c #FFFD3D",
"]	c #C7C52F",
"^	c #76751B",
"/	c #585814",
"(	c #EDEDED",
"_	c #656565",
":	c #818181",
"<	c #BFBE86",
"[	c #5D5C15",
"}	c #8D8B21",
"|	c #636363",
"1	c #444444",
"2	c #C9C9C9",
"3	c #403F58",
"4	c #C7C7C7",
"5	c #141447",
"6	c #7675A3",
"7	c #838383",
"8	c #6C6C6C",
"9	c #F8F8F8",
"0	c #333333",
"a	c #5D5D5D",
"b	c #B1B2B1",
"c	c #5B5A15",
"d	c #414141",
"e	c #707170",
"f	c #9D9E9D",
"g	c #717271",
"h	c #5B5B5B",
"                ",
"    ........... ",
"    .+++++++++. ",
"    @#$%&+++*+. ",
"  =-;-;>,,'''+. ",
" )!~{]^/@(_+:+. ",
" <[^,^,},,|':+. ",
" )!~{]^/12|+:+. ",
" <[^,^,},,|''+. ",
" )!~{]^/34|+:+. ",
" <[^,^,}56|+7+. ",
" )!~{]^/34|+7+. ",
" <[^,^,}849+++. ",
" )!~{]^/0a;.... ",
" b[ccc,deb      ",
"  fgahagf       "};
