/* XPM */
static char * eas_logo_xpm[] = {
"16 16 155 2",
"  	c None",
". 	c #82A1C2",
"+ 	c #6294C6",
"@ 	c #558EC7",
"# 	c #6492C0",
"$ 	c #8EA0B3",
"% 	c #6797C8",
"& 	c #3785D4",
"* 	c #3284D7",
"= 	c #3383D5",
"- 	c #5C86B1",
"; 	c #A3A3A4",
"> 	c #92AAC1",
", 	c #3E87D2",
"' 	c #3184D7",
") 	c #3385D5",
"! 	c #3384D2",
"~ 	c #3382CF",
"{ 	c #3282CF",
"] 	c #2F80D1",
"^ 	c #3080D0",
"/ 	c #667D8F",
"( 	c #9CA1A4",
"_ 	c #83A3C4",
": 	c #3585D5",
"< 	c #3688D4",
"[ 	c #5EBBE8",
"} 	c #62C0EA",
"| 	c #62C1EA",
"1 	c #62C1EB",
"2 	c #5EBAE5",
"3 	c #2C73B6",
"4 	c #3381C8",
"5 	c #5FBAE3",
"6 	c #6D93A4",
"7 	c #95ABC1",
"8 	c #3584D5",
"9 	c #5EBBE7",
"0 	c #61C0EA",
"a 	c #61C1EA",
"b 	c #61C0E9",
"c 	c #62C0E9",
"d 	c #4996BF",
"e 	c #265F91",
"f 	c #63C4EE",
"g 	c #5A9FBF",
"h 	c #3D87D2",
"i 	c #3486D5",
"j 	c #63C5F0",
"k 	c #2A608B",
"l 	c #1E4C70",
"m 	c #1F4A6C",
"n 	c #1F496C",
"o 	c #1A456B",
"p 	c #265E8E",
"q 	c #63C3EF",
"r 	c #5CB6E0",
"s 	c #394043",
"t 	c #6596C8",
"u 	c #3687D1",
"v 	c #63C6F0",
"w 	c #6AD0FC",
"x 	c #62C0E8",
"y 	c #58AED9",
"z 	c #5EBAE4",
"A 	c #233C4E",
"B 	c #3D3E3E",
"C 	c #ABB4BE",
"D 	c #69CFFB",
"E 	c #5DB6DF",
"F 	c #205077",
"G 	c #276091",
"H 	c #5CB7E2",
"I 	c #232E33",
"J 	c #565656",
"K 	c #7EA0C3",
"L 	c #64C5F0",
"M 	c #224D6C",
"N 	c #1B4360",
"O 	c #1E4667",
"P 	c #1A4165",
"Q 	c #225580",
"R 	c #5DBAE3",
"S 	c #1F3F55",
"T 	c #2E2F2F",
"U 	c #757575",
"V 	c #5E92C7",
"W 	c #5DB6E1",
"X 	c #265E8D",
"Y 	c #5EB9E3",
"Z 	c #5DB7E0",
"` 	c #222B30",
" .	c #4E4E4E",
"..	c #959595",
"+.	c #538DC8",
"@.	c #55ADDD",
"#.	c #4D9AC3",
"$.	c #255987",
"%.	c #5DB9E3",
"&.	c #5CB8E2",
"*.	c #1F323F",
"=.	c #323333",
"-.	c #767676",
";.	c #ADADAD",
">.	c #5F90C2",
",.	c #2C74B8",
"'.	c #23598D",
").	c #1C466D",
"!.	c #1A4267",
"~.	c #1B456D",
"{.	c #1E5182",
"].	c #255E94",
"^.	c #213648",
"/.	c #616161",
"(.	c #9E9E9E",
"_.	c #869DB4",
":.	c #3283D6",
"<.	c #3182D5",
"[.	c #2F7CCA",
"}.	c #2A6FB5",
"|.	c #2666A6",
"1.	c #2563A2",
"2.	c #2767A7",
"3.	c #28639F",
"4.	c #2F3E4E",
"5.	c #464646",
"6.	c #696969",
"7.	c #989898",
"8.	c #5585B5",
"9.	c #3283D5",
"0.	c #3080D1",
"a.	c #307ECE",
"b.	c #2F79C4",
"c.	c #305B86",
"d.	c #3F4347",
"e.	c #5C5C5C",
"f.	c #818181",
"g.	c #A1A1A1",
"h.	c #A0A0A1",
"i.	c #64798E",
"j.	c #3F6E9E",
"k.	c #366EA6",
"l.	c #356799",
"m.	c #385675",
"n.	c #444A51",
"o.	c #585858",
"p.	c #737373",
"q.	c #929292",
"r.	c #ACACAC",
"s.	c #A2A2A2",
"t.	c #888888",
"u.	c #6C6C6C",
"v.	c #707070",
"w.	c #7F7F7F",
"x.	c #A5A5A5",
"                . + @ # $       ",
"            % & * * * * = - ;   ",
"        > , ' ) ! ~ ~ { ] ^ / ( ",
"      _ : ' < [ } | 1 2 3 4 5 6 ",
"    7 8 ' < 9 0 a b c d e 2 f g ",
"    h * i [ j k l m n o p q r s ",
"  t * ' u v w 1 b x y e z q A B ",
"C : * i 9 D 1 b c E F G q H I J ",
"K * ' u v L M N O P Q R q S T U ",
"V * i 9 w w 1 b W X Y D Z `  ...",
"+.* ! @.0 } } } #.$.%.&.*.=.-.;.",
">.* ] ,.'.).P !.~.{.].^.T /.(.  ",
"_.:.<.[.}.|.1.1.2.3.4.5.6.7.    ",
"  8.9.<.0.a.a.b.c.d.e.f.g.      ",
"  h.i.j.k.l.m.n.o.p.q.r.        ",
"    s.t.p.u.v.w.q.x.            "};
