/* XPM */
static char * reference_clients_xpm[] = {
"16 16 230 2",
"  	c None",
". 	c #989ABB",
"+ 	c #9BA1C9",
"@ 	c #A9AED4",
"# 	c #A1A3C9",
"$ 	c #8687AB",
"% 	c #A3A4AB",
"& 	c #C7AFA5",
"* 	c #C29E8E",
"= 	c #BFA397",
"- 	c #BDB3B0",
"; 	c #8285B0",
"> 	c #A7B1E0",
", 	c #B1BBE3",
"' 	c #AEB4DA",
") 	c #ABAFD5",
"! 	c #A4A8D4",
"~ 	c #907285",
"{ 	c #C58F77",
"] 	c #EABAA3",
"^ 	c #E7C3B1",
"/ 	c #DEBDAC",
"( 	c #C29F90",
"_ 	c #947D73",
": 	c #BEBEBD",
"< 	c #8E90AE",
"[ 	c #5F6BB9",
"} 	c #7581C4",
"| 	c #727EC0",
"1 	c #6A77BD",
"2 	c #646FB7",
"3 	c #795C7B",
"4 	c #D7875F",
"5 	c #EEA783",
"6 	c #E69F7E",
"7 	c #DC9D7E",
"8 	c #CF997F",
"9 	c #C49B86",
"0 	c #B49180",
"a 	c #775E55",
"b 	c #C0C1C0",
"c 	c #3E4391",
"d 	c #4C4E9A",
"e 	c #C6A79B",
"f 	c #C3A499",
"g 	c #3D479D",
"h 	c #2B308B",
"i 	c #8C3C25",
"j 	c #C66532",
"k 	c #D0774A",
"l 	c #CE7345",
"m 	c #C2653A",
"n 	c #B0643E",
"o 	c #995C3E",
"p 	c #875B44",
"q 	c #613D2B",
"r 	c #746D69",
"s 	c #7B6F8F",
"t 	c #D5A990",
"u 	c #FFD09B",
"v 	c #FFCE9D",
"w 	c #C1A39A",
"x 	c #795A6D",
"y 	c #7D2100",
"z 	c #BC6A3C",
"A 	c #F2BF93",
"B 	c #E2A276",
"C 	c #9F4113",
"D 	c #832D07",
"E 	c #6A2707",
"F 	c #511F08",
"G 	c #3C1605",
"H 	c #4E4441",
"I 	c #C1B2A3",
"J 	c #FFCC9A",
"K 	c #F7C8A2",
"L 	c #FCCFAA",
"M 	c #FFDDB2",
"N 	c #F5C599",
"O 	c #BB7D57",
"P 	c #F0BE94",
"Q 	c #FDCDA3",
"R 	c #FFCFA4",
"S 	c #DDA87F",
"T 	c #B57A55",
"U 	c #A26D4B",
"V 	c #A37656",
"W 	c #BE9470",
"X 	c #81756B",
"Y 	c #C2C2C0",
"Z 	c #E9BF9C",
"` 	c #FDD0AB",
" .	c #FBD4B4",
"..	c #FED8B9",
"+.	c #FFDDBF",
"@.	c #F8CAA2",
"#.	c #F2C197",
"$.	c #F8C9A3",
"%.	c #FFD9B4",
"&.	c #FFDDB8",
"*.	c #FFDCB7",
"=.	c #FFDFB8",
"-.	c #FFDFB6",
";.	c #88817A",
">.	c #ACA6A4",
",.	c #DAB4A0",
"'.	c #FED3BC",
").	c #FFDBC5",
"!.	c #FFDECD",
"~.	c #F1C9B2",
"{.	c #F1C098",
"].	c #F9CEAA",
"^.	c #FBD3B3",
"/.	c #FDD8B9",
"(.	c #FEDABB",
"_.	c #FFDBBC",
":.	c #FFE7C6",
"<.	c #C1A791",
"[.	c #8A8B8A",
"}.	c #ABB0A8",
"|.	c #76AE60",
"1.	c #A3DF89",
"2.	c #8DCF76",
"3.	c #6B7F64",
"4.	c #A28E85",
"5.	c #F4D0AD",
"6.	c #FDE2C2",
"7.	c #FCE2C6",
"8.	c #FFE8CD",
"9.	c #FFEDD1",
"0.	c #C9B5A2",
"a.	c #767573",
"b.	c #B8B9B8",
"c.	c #5BAE57",
"d.	c #5FCE66",
"e.	c #79DB7E",
"f.	c #71D977",
"g.	c #47AF48",
"h.	c #8F9E90",
"i.	c #A39897",
"j.	c #CC7F73",
"k.	c #F2A997",
"l.	c #E59788",
"m.	c #917571",
"n.	c #838584",
"o.	c #B5B6B5",
"p.	c #78B071",
"q.	c #5ABD5D",
"r.	c #70D072",
"s.	c #68D36A",
"t.	c #6BD36D",
"u.	c #6DDE73",
"v.	c #489E44",
"w.	c #975051",
"x.	c #CF585C",
"y.	c #DC7B7C",
"z.	c #D86C6D",
"A.	c #A43F44",
"B.	c #A19898",
"C.	c #BFCCBC",
"D.	c #399D38",
"E.	c #4FC552",
"F.	c #49E04C",
"G.	c #49ED4C",
"H.	c #49EE4C",
"I.	c #45EF4E",
"J.	c #777031",
"K.	c #C5575D",
"L.	c #D37B7B",
"M.	c #D37373",
"N.	c #D37777",
"O.	c #DC7675",
"P.	c #A24549",
"Q.	c #B7B6B5",
"R.	c #84B37D",
"S.	c #24A728",
"T.	c #2FE032",
"U.	c #33FF37",
"V.	c #3DFF40",
"W.	c #3BFF44",
"X.	c #45CB2F",
"Y.	c #A03633",
"Z.	c #C8595D",
"`.	c #D65555",
" +	c #E05555",
".+	c #E05454",
"++	c #DD5959",
"@+	c #DB4E4E",
"#+	c #8A5D60",
"$+	c #5CA458",
"%+	c #12A617",
"&+	c #1ADF1D",
"*+	c #2EEB30",
"=+	c #3AEB3D",
"-+	c #36EB40",
";+	c #656B22",
">+	c #B12733",
",+	c #D53C3B",
"'+	c #F43B3B",
")+	c #FC3F3F",
"!+	c #FD4040",
"~+	c #FA3E3E",
"{+	c #FB3E3D",
"]+	c #B92C30",
"^+	c #ACACAB",
"/+	c #B4BAB3",
"(+	c #889288",
"_+	c #838F83",
":+	c #859085",
"<+	c #83857C",
"[+	c #8F1719",
"}+	c #CA2020",
"|+	c #FF2323",
"1+	c #FF3434",
"2+	c #FF3F3F",
"3+	c #FF4242",
"4+	c #FF3D3D",
"5+	c #FF3333",
"6+	c #FF1C1E",
"7+	c #8D7173",
"8+	c #886263",
"9+	c #804342",
"0+	c #934847",
"a+	c #945050",
"b+	c #945453",
"c+	c #945454",
"d+	c #945353",
"e+	c #944F4E",
"f+	c #944544",
"g+	c #877475",
"    . + @ # $ %   & * = -       ",
"  ; > , ' ) ! ~ { ] ^ / ( _ :   ",
"< [ } | 1 2 3 4 5 6 7 8 9 0 a b ",
"c d e f g h i j k l m n o p q r ",
"s t u v w x y z A B C D E F G H ",
"I J K L M N O P Q R S T U V W X ",
"Y Z `  ...+.@.#.$.` %.&.*.=.-.;.",
"  >.,.'.).!.~.{.].^./.(._.:.<.[.",
"    }.|.1.2.3.4.5.6.7.8.9.0.a.b.",
"    c.d.e.f.g.h.i.j.k.l.m.n.o.  ",
"  p.q.r.s.t.u.v.w.x.y.z.A.B.    ",
"C.D.E.F.G.H.I.J.K.L.M.N.O.P.Q.  ",
"R.S.T.U.V.W.X.Y.Z.`. +.+++@+#+  ",
"$+%+&+*+=+-+;+>+,+'+)+!+~+{+]+^+",
"/+(+_+:+(+<+[+}+|+1+2+3+4+5+6+7+",
"            8+9+0+a+b+c+d+e+f+g+"};
