/* XPM */
static char * tick_xpm[] = {
"10 15 5 1",
" 	c #FFFFFF",
".	c #FF7B7B",
"+	c #FF8F8F",
"@	c #FFA4A4",
"#	c #FFBBBB",
"          ",
"        . ",
" +     +. ",
" .+   +.. ",
" ..@ @..# ",
" @..#..@  ",
"  +...+   ",
"   +.+    ",
"    .     ",
"          ",
"          ",
"          ",
"          ",
"          ",
"          "};
