/* XPM */
static char * journal_bank_pp_xpm[] = {
"16 16 46 1",
" 	c None",
".	c #6238B6",
"+	c #F5E15E",
"@	c #183196",
"#	c #A29EF6",
"$	c #5F36B1",
"%	c #6036B2",
"&	c #6137B4",
"*	c #A6A67F",
"=	c #B4B482",
"-	c #737373",
";	c #D5D5D5",
">	c #6E6E6E",
",	c #FCFCFC",
"'	c #FFFFFF",
")	c #777777",
"!	c #959481",
"~	c #A6A527",
"{	c #E2E036",
"]	c #FFFD3D",
"^	c #C7C52F",
"/	c #76751B",
"(	c #585814",
"_	c #585858",
":	c #767676",
"<	c #BFBE86",
"[	c #5D5C15",
"}	c #000000",
"|	c #8D8B21",
"1	c #3F3F3F",
"2	c #F9F9F9",
"3	c #343434",
"4	c #5D5D5D",
"5	c #323232",
"6	c #C7C7C7",
"7	c #F8F8F8",
"8	c #5C5C5C",
"9	c #2A184F",
"0	c #4D2C8F",
"a	c #B1B2B1",
"b	c #5B5A15",
"c	c #414141",
"d	c #707170",
"e	c #9D9E9D",
"f	c #717271",
"g	c #5B5B5B",
"                ",
"    ........... ",
"    .+@##@@@@@. ",
"    $$$%&...... ",
"  *=-=-;>,')''. ",
" !~{]^/(_>:))). ",
" <[/}/}|1;2)''. ",
" !~{]^/(34-))). ",
" <[/}/}|567)''. ",
" !~{]^/(58-))). ",
" <[/}/}|567)''. ",
" !~{]^/(58-))). ",
" <[/}/}|567)''. ",
" !~{]^/(90$.... ",
" a[bbb}cda      ",
"  ef4g4fe       "};
